<!-- icon666.com - MILLIONS vector ICONS FREE --><svg clip-rule="evenodd" fill-rule="evenodd" stroke-linejoin="round" stroke-miterlimit="2" viewBox="0 0 32 32" xmlns="http://www.w3.org/2000/svg"><path d="m28.666 7.044-5.404-3.94c-.872-.636-2.07-.575-2.873.145-.804.72-.994 1.905-.457 2.84l1.509 2.627c.078.137.078.305 0 .442l-1.509 2.626c-.537.936-.347 2.12.457 2.841.803.72 2.001.781 2.873.145l5.404-3.941c.605-.441.963-1.144.963-1.892 0-.749-.358-1.452-.963-1.893z" fill="#000000" style="fill: rgb(255, 255, 255);"></path><path d="m28.666 21.171-5.404-3.941c-.872-.636-2.07-.575-2.873.145-.804.721-.994 1.905-.457 2.841l1.509 2.626c.078.137.078.305 0 .442l-1.509 2.627c-.537.935-.347 2.12.457 2.84.803.72 2.001.781 2.873.145l5.404-3.94c.605-.441.963-1.144.963-1.893 0-.748-.358-1.451-.963-1.892z" fill="#000000" style="fill: rgb(255, 255, 255);"></path><path d="m21.739 20.349c-.138-.24-.397-.384-.674-.376-.803.025-1.713.054-2.728.089-6.148.21-13.201.597-13.607.619-1.304.012-2.359 1.075-2.359 2.382 0 1.308 1.057 2.371 2.362 2.382.403.023 7.456.41 13.604.62 1.015.035 1.925.064 2.728.088.277.009.536-.136.674-.376l1.002-1.746c.345-.599.345-1.336 0-1.936 0 0-1.002-1.746-1.002-1.746z" fill="#000000" style="fill: rgb(255, 255, 255);"></path><path d="m21.739 6.223c-.138-.24-.397-.385-.674-.376-.803.024-1.713.053-2.728.088-6.148.21-13.201.597-13.607.62-1.304.012-2.359 1.075-2.359 2.382 0 1.308 1.057 2.371 2.362 2.382.403.022 7.456.409 13.604.619 1.015.035 1.925.064 2.728.089.277.008.536-.136.674-.376l1.002-1.746c.345-.6.345-1.337 0-1.936 0 0-1.002-1.746-1.002-1.746z" fill="#000000" style="fill: rgb(255, 255, 255);"></path></svg>